G04 (created by PCBNEW (2013-07-07 BZR 4022)-stable) date 8/26/2014 20:30:28*
%MOIN*%
G04 Gerber Fmt 3.4, Leading zero omitted, Abs format*
%FSLAX34Y34*%
G01*
G70*
G90*
G04 APERTURE LIST*
%ADD10C,0.00590551*%
%ADD11R,0.0393701X0.125984*%
%ADD12C,0.0590551*%
%ADD13O,0.0787402X0.0590551*%
%ADD14R,0.19685X0.19685*%
%ADD15R,0.0590551X0.0590551*%
%ADD16C,0.0472441*%
%ADD17C,0.0511811*%
%ADD18C,0.145669*%
G04 APERTURE END LIST*
G54D10*
G54D11*
X109685Y-85826D03*
X107244Y-85826D03*
X109685Y-88976D03*
X107244Y-88976D03*
X109685Y-87401D03*
X107244Y-87401D03*
X53897Y-88976D03*
X56338Y-88976D03*
X109685Y-32283D03*
X107244Y-32283D03*
X109685Y-29133D03*
X107244Y-29133D03*
X53897Y-87401D03*
X56338Y-87401D03*
X53897Y-85826D03*
X56338Y-85826D03*
X54094Y-29133D03*
X56535Y-29133D03*
X54094Y-30708D03*
X56535Y-30708D03*
X54094Y-32283D03*
X56535Y-32283D03*
X109685Y-30708D03*
X107244Y-30708D03*
G54D12*
X77559Y-36417D03*
X77559Y-37204D03*
X77559Y-37992D03*
X77559Y-38779D03*
X77559Y-39566D03*
X77559Y-40354D03*
X77559Y-41141D03*
X77559Y-41929D03*
X77559Y-42716D03*
X77559Y-43503D03*
X86220Y-43503D03*
X86220Y-42716D03*
X86220Y-41929D03*
X86220Y-41141D03*
X86220Y-40354D03*
X86220Y-39566D03*
X86220Y-38779D03*
X86220Y-37992D03*
X86220Y-37204D03*
X86220Y-36417D03*
G54D13*
X55905Y-51377D03*
X57480Y-51771D03*
X57480Y-50984D03*
X55905Y-50590D03*
X57480Y-49409D03*
X55905Y-49803D03*
X55905Y-49015D03*
X57480Y-50196D03*
X57480Y-48622D03*
X55905Y-48228D03*
X57480Y-47834D03*
X55905Y-47440D03*
X57480Y-47047D03*
X55905Y-46653D03*
X57480Y-46259D03*
X55905Y-45866D03*
X57480Y-45472D03*
X55905Y-45078D03*
X57480Y-44685D03*
X55905Y-44291D03*
X57480Y-43897D03*
X55905Y-43503D03*
X57480Y-43110D03*
X55905Y-42716D03*
X57480Y-42322D03*
X55905Y-75393D03*
X57480Y-75787D03*
X57480Y-75000D03*
X55905Y-74606D03*
X57480Y-73425D03*
X55905Y-73818D03*
X55905Y-73031D03*
X57480Y-74212D03*
X57480Y-72637D03*
X55905Y-72244D03*
X57480Y-71850D03*
X55905Y-71456D03*
X57480Y-71062D03*
X55905Y-70669D03*
X57480Y-70275D03*
X55905Y-69881D03*
X57480Y-69488D03*
X55905Y-69094D03*
X57480Y-68700D03*
X55905Y-68307D03*
X57480Y-67913D03*
X55905Y-67519D03*
X57480Y-67125D03*
X55905Y-66732D03*
X57480Y-66338D03*
X107874Y-42716D03*
X106299Y-42322D03*
X106299Y-43110D03*
X107874Y-43503D03*
X106299Y-44685D03*
X107874Y-44291D03*
X107874Y-45078D03*
X106299Y-43897D03*
X106299Y-45472D03*
X107874Y-45866D03*
X106299Y-46259D03*
X107874Y-46653D03*
X106299Y-47047D03*
X107874Y-47440D03*
X106299Y-47834D03*
X107874Y-48228D03*
X106299Y-48622D03*
X107874Y-49015D03*
X106299Y-49409D03*
X107874Y-49803D03*
X106299Y-50196D03*
X107874Y-50590D03*
X106299Y-50984D03*
X107874Y-51377D03*
X106299Y-51771D03*
X107874Y-66732D03*
X106299Y-66338D03*
X106299Y-67125D03*
X107874Y-67519D03*
X106299Y-68700D03*
X107874Y-68307D03*
X107874Y-69094D03*
X106299Y-67913D03*
X106299Y-69488D03*
X107874Y-69881D03*
X106299Y-70275D03*
X107874Y-70669D03*
X106299Y-71062D03*
X107874Y-71456D03*
X106299Y-71850D03*
X107874Y-72244D03*
X106299Y-72637D03*
X107874Y-73031D03*
X106299Y-73425D03*
X107874Y-73818D03*
X106299Y-74212D03*
X107874Y-74606D03*
X106299Y-75000D03*
X107874Y-75393D03*
X106299Y-75787D03*
G54D10*
G36*
X60447Y-81299D02*
X59055Y-82691D01*
X57663Y-81299D01*
X59055Y-79907D01*
X60447Y-81299D01*
X60447Y-81299D01*
G37*
G36*
X100857Y-36334D02*
X102641Y-35503D01*
X103473Y-37287D01*
X101689Y-38119D01*
X100857Y-36334D01*
X100857Y-36334D01*
G37*
G36*
X102641Y-82607D02*
X100857Y-81775D01*
X101689Y-79991D01*
X103473Y-80823D01*
X102641Y-82607D01*
X102641Y-82607D01*
G37*
G36*
X94857Y-31798D02*
X95367Y-29896D01*
X97268Y-30406D01*
X96758Y-32307D01*
X94857Y-31798D01*
X94857Y-31798D01*
G37*
G36*
X59055Y-38202D02*
X57663Y-36811D01*
X59055Y-35419D01*
X60447Y-36811D01*
X59055Y-38202D01*
X59055Y-38202D01*
G37*
G54D14*
X78740Y-87401D03*
G54D10*
G36*
X67020Y-32307D02*
X66511Y-30406D01*
X68412Y-29896D01*
X68921Y-31798D01*
X67020Y-32307D01*
X67020Y-32307D01*
G37*
G36*
X95367Y-88213D02*
X94857Y-86311D01*
X96758Y-85802D01*
X97268Y-87703D01*
X95367Y-88213D01*
X95367Y-88213D01*
G37*
G54D14*
X78740Y-30708D03*
G54D10*
G36*
X66511Y-87703D02*
X67020Y-85802D01*
X68921Y-86311D01*
X68412Y-88213D01*
X66511Y-87703D01*
X66511Y-87703D01*
G37*
G54D15*
X90389Y-70748D03*
G54D12*
X90389Y-69748D03*
X90389Y-68748D03*
X90389Y-67748D03*
X90389Y-66748D03*
X90389Y-65748D03*
X90389Y-64748D03*
X90389Y-63748D03*
X91389Y-63748D03*
X91389Y-64748D03*
X91389Y-65748D03*
X91389Y-66748D03*
X91389Y-67748D03*
X91389Y-68748D03*
X91389Y-69748D03*
X91389Y-70748D03*
G54D15*
X90389Y-61748D03*
G54D12*
X90389Y-60748D03*
X90389Y-59748D03*
X90389Y-58748D03*
X90389Y-57748D03*
X90389Y-56748D03*
X91389Y-56748D03*
X91389Y-57748D03*
X91389Y-58748D03*
X91389Y-59748D03*
X91389Y-60748D03*
X91389Y-61748D03*
X72389Y-70348D03*
X73389Y-70348D03*
X73389Y-71348D03*
X72389Y-71348D03*
X72389Y-73348D03*
X73389Y-73348D03*
X73389Y-72348D03*
X72389Y-72348D03*
X73389Y-74348D03*
X72389Y-74348D03*
X72389Y-69348D03*
X73389Y-69348D03*
X72389Y-67348D03*
X73389Y-67348D03*
X73389Y-68348D03*
X72389Y-68348D03*
X72389Y-66348D03*
X73389Y-66348D03*
G54D15*
X73389Y-65348D03*
G54D12*
X73389Y-63748D03*
X73389Y-62748D03*
X73389Y-61748D03*
X73389Y-60748D03*
X73389Y-59748D03*
X73389Y-58748D03*
X73389Y-57748D03*
G54D15*
X73389Y-56748D03*
G54D12*
X72389Y-56748D03*
X72389Y-57748D03*
X72389Y-58748D03*
X72389Y-59748D03*
X72389Y-60748D03*
X72389Y-61748D03*
X72389Y-62748D03*
X72389Y-63748D03*
X72389Y-65348D03*
G54D16*
X60826Y-65748D03*
X61850Y-65748D03*
X63188Y-43188D03*
X64212Y-43188D03*
X102716Y-52559D03*
X101692Y-52559D03*
X100708Y-73818D03*
X99685Y-73818D03*
G54D17*
X105511Y-60917D03*
X105511Y-61917D03*
X105511Y-59917D03*
X105511Y-62917D03*
X58267Y-87901D03*
X58267Y-86901D03*
X58267Y-88901D03*
X58267Y-85901D03*
X105511Y-86901D03*
X105511Y-87901D03*
X105511Y-85901D03*
X105511Y-88901D03*
X105511Y-30208D03*
X105511Y-31208D03*
X105511Y-29208D03*
X105511Y-32208D03*
X105511Y-56192D03*
X105511Y-57192D03*
X105511Y-55192D03*
X105511Y-58192D03*
X58267Y-31208D03*
X58267Y-30208D03*
X58267Y-32208D03*
X58267Y-29208D03*
X58267Y-57192D03*
X58267Y-56192D03*
X58267Y-58192D03*
X58267Y-55192D03*
X58267Y-61917D03*
X58267Y-60917D03*
X58267Y-62917D03*
X58267Y-59917D03*
X82389Y-88582D03*
X81389Y-88582D03*
X64066Y-29527D03*
X65066Y-29527D03*
X99712Y-88582D03*
X98712Y-88582D03*
X81389Y-29527D03*
X82389Y-29527D03*
X65066Y-88582D03*
X64066Y-88582D03*
X98712Y-29527D03*
X99712Y-29527D03*
G54D12*
X111220Y-81299D03*
X109251Y-81299D03*
X52559Y-81299D03*
X54527Y-81299D03*
X52559Y-36811D03*
X54527Y-36811D03*
X111220Y-36811D03*
X109251Y-36811D03*
G54D18*
X53149Y-24409D03*
X110629Y-24409D03*
X53149Y-93700D03*
X110629Y-93700D03*
X80236Y-44881D03*
X81692Y-77992D03*
M02*
