M48
;DRILL file {Pcbnew (2013-07-07 BZR 4022)-stable} date 8/24/2014 16:50:05
;FORMAT={-:-/ absolute / metric / decimal}
FMAT,2
METRIC,TZ
T1C0.500
T2C0.600
T3C0.635
T4C0.700
T5C0.900
T6C1.000
T7C1.100
T8C3.600
%
G90
G05
M71
T1
X154.5Y-167.
X157.1Y-167.
X160.5Y-109.7
X163.1Y-109.7
X253.2Y-187.5
X255.8Y-187.5
X258.3Y-133.5
X260.9Y-133.5
T2
X183.87Y-144.14
X183.87Y-146.68
X183.87Y-149.22
X183.87Y-151.76
X183.87Y-154.3
X183.87Y-156.84
X183.87Y-159.38
X183.87Y-161.92
X183.87Y-165.984
X183.87Y-168.524
X183.87Y-171.064
X183.87Y-173.604
X183.87Y-176.144
X183.87Y-178.684
X183.87Y-181.224
X183.87Y-183.764
X183.87Y-186.304
X183.87Y-188.844
X186.41Y-144.14
X186.41Y-146.68
X186.41Y-149.22
X186.41Y-151.76
X186.41Y-154.3
X186.41Y-156.84
X186.41Y-159.38
X186.41Y-161.92
X186.41Y-165.984
X186.41Y-168.524
X186.41Y-171.064
X186.41Y-173.604
X186.41Y-176.144
X186.41Y-178.684
X186.41Y-181.224
X186.41Y-183.764
X186.41Y-186.304
X186.41Y-188.844
X229.59Y-144.14
X229.59Y-146.68
X229.59Y-149.22
X229.59Y-151.76
X229.59Y-154.3
X229.59Y-156.84
X229.59Y-161.92
X229.59Y-164.46
X229.59Y-167.
X229.59Y-169.54
X229.59Y-172.08
X229.59Y-174.62
X229.59Y-177.16
X229.59Y-179.7
X232.13Y-144.14
X232.13Y-146.68
X232.13Y-149.22
X232.13Y-151.76
X232.13Y-154.3
X232.13Y-156.84
X232.13Y-161.92
X232.13Y-164.46
X232.13Y-167.
X232.13Y-169.54
X232.13Y-172.08
X232.13Y-174.62
X232.13Y-177.16
X232.13Y-179.7
T3
X135.1Y-132.
X135.6Y-191.6
X136.3Y-132.
X136.8Y-191.6
X137.5Y-132.
X137.5Y-178.5
X137.6Y-169.4
X138.Y-191.6
X138.7Y-132.
X139.1Y-170.5
X139.2Y-117.5
X139.2Y-120.5
X139.2Y-122.5
X139.2Y-124.5
X139.2Y-126.5
X139.2Y-183.
X139.2Y-184.5
X139.2Y-186.5
X139.2Y-188.5
X139.2Y-191.6
X140.1Y-105.7
X140.1Y-140.2
X141.4Y-138.1
X142.7Y-105.
X142.7Y-148.5
X144.Y-93.5
X144.Y-142.7
X144.Y-206.5
X144.8Y-162.5
X145.3Y-195.7
X145.3Y-196.9
X145.3Y-198.1
X145.4Y-199.4
X148.9Y-188.3
X149.6Y-105.8
X149.6Y-108.5
X149.8Y-185.7
X150.5Y-132.5
X150.5Y-180.3
X150.7Y-183.7
X151.2Y-162.6
X151.4Y-134.3
X151.4Y-135.5
X151.4Y-136.7
X151.6Y-193.4
X152.3Y-127.3
X153.1Y-124.7
X153.9Y-122.3
X155.Y-119.4
X156.7Y-172.7
X157.2Y-150.5
X159.3Y-120.3
X159.3Y-121.6
X159.3Y-122.9
X159.3Y-124.2
X159.3Y-125.4
X159.3Y-126.7
X159.3Y-128.
X159.3Y-181.4
X159.3Y-182.6
X159.3Y-183.9
X159.3Y-185.2
X159.3Y-186.4
X159.3Y-187.8
X159.3Y-189.
X159.4Y-106.
X159.4Y-133.5
X159.4Y-194.5
X160.5Y-162.6
X163.1Y-162.4
X164.1Y-125.3
X164.2Y-118.5
X164.6Y-162.8
X165.8Y-186.6
X165.8Y-191.3
X167.Y-165.2
X167.1Y-136.1
X168.Y-167.6
X168.2Y-186.7
X168.3Y-184.
X168.7Y-194.4
X168.9Y-105.9
X168.9Y-160.6
X170.3Y-131.4
X171.7Y-153.5
X171.8Y-178.8
X172.4Y-185.4
X172.7Y-121.6
X173.1Y-125.5
X174.3Y-185.
X174.8Y-170.3
X174.8Y-182.9
X176.5Y-124.1
X176.7Y-132.6
X178.Y-184.9
X178.4Y-131.2
X178.5Y-133.9
X178.8Y-123.2
X180.Y-120.4
X182.Y-172.4
X185.Y-212.3
X185.9Y-213.1
X186.8Y-213.9
X189.2Y-186.4
X190.Y-165.4
X190.2Y-167.8
X190.9Y-160.9
X191.4Y-163.8
X191.6Y-166.7
X192.1Y-158.5
X192.1Y-160.9
X192.2Y-180.
X192.6Y-102.5
X193.4Y-157.2
X193.6Y-159.8
X193.8Y-101.6
X196.8Y-169.8
X197.1Y-185.
X198.4Y-157.5
X198.4Y-162.1
X198.5Y-163.4
X198.5Y-164.7
X198.5Y-165.9
X199.1Y-89.8
X199.1Y-152.7
X199.5Y-134.8
X200.2Y-162.1
X200.7Y-183.9
X201.2Y-161.
X201.2Y-164.7
X202.1Y-162.1
X203.Y-163.3
X203.1Y-165.9
X203.5Y-135.7
X203.5Y-143.9
X203.5Y-147.1
X203.5Y-150.
X203.6Y-138.2
X203.6Y-141.7
X206.2Y-157.4
X207.Y-146.7
X207.7Y-159.5
X214.6Y-144.3
X214.9Y-156.6
X214.9Y-159.2
X215.Y-165.2
X215.Y-168.6
X215.Y-171.1
X215.1Y-162.6
X216.1Y-147.8
X216.5Y-143.9
X217.4Y-131.6
X219.2Y-124.1
X219.2Y-136.2
X220.5Y-166.6
X220.6Y-157.8
X220.7Y-159.2
X220.7Y-162.6
X220.8Y-141.4
X220.8Y-142.7
X220.8Y-144.
X220.8Y-147.7
X221.3Y-122.7
X222.6Y-141.5
X222.7Y-144.9
X223.5Y-209.9
X223.7Y-142.7
X225.1Y-145.6
X225.2Y-170.7
X225.3Y-173.7
X225.3Y-209.9
X225.4Y-152.
X226.6Y-175.8
X226.9Y-172.8
X226.9Y-209.9
X227.5Y-114.4
X227.5Y-155.5
X228.4Y-116.5
X228.4Y-153.11
X229.2Y-184.
X229.5Y-141.6
X230.7Y-132.5
X231.3Y-121.3
X233.Y-131.7
X234.1Y-175.6
X234.2Y-164.1
X234.3Y-127.7
X234.4Y-130.1
X234.5Y-153.5
X234.5Y-162.1
X234.7Y-157.8
X234.8Y-120.5
X235.2Y-122.7
X235.3Y-126.6
X235.7Y-128.8
X235.8Y-170.
X236.6Y-158.8
X236.7Y-161.2
X236.8Y-160.
X237.3Y-119.4
X238.Y-164.
X239.Y-153.2
X240.2Y-112.4
X240.3Y-113.8
X240.3Y-115.
X240.3Y-116.2
X240.3Y-153.3
X241.2Y-176.9
X241.3Y-140.1
X241.3Y-160.
X241.4Y-120.2
X241.5Y-153.5
X241.5Y-171.3
X241.5Y-172.6
X241.6Y-174.3
X241.7Y-156.5
X242.5Y-112.3
X242.6Y-113.7
X242.6Y-114.9
X242.6Y-116.1
X242.8Y-122.1
X243.3Y-174.6
X243.3Y-175.9
X243.4Y-173.3
X243.6Y-131.3
X243.7Y-140.
X243.8Y-158.5
X244.9Y-156.5
X245.Y-128.6
X245.1Y-149.4
X245.8Y-130.3
X246.3Y-135.1
X246.4Y-139.9
X246.4Y-146.5
X246.5Y-149.3
X246.5Y-192.3
X247.2Y-105.5
X247.2Y-166.5
X247.3Y-194.
X247.6Y-113.2
X250.1Y-125.5
X250.3Y-132.3
X250.4Y-136.4
X250.6Y-159.3
X251.6Y-181.4
X252.3Y-132.3
X253.Y-135.4
X254.6Y-137.7
X256.6Y-105.5
X256.6Y-172.1
X256.6Y-194.
X256.7Y-111.
X256.7Y-112.4
X256.7Y-113.6
X256.7Y-114.9
X256.7Y-116.2
X256.7Y-117.4
X256.7Y-118.7
X256.7Y-166.5
X256.7Y-173.4
X256.7Y-174.6
X256.7Y-175.8
X256.7Y-177.1
X256.7Y-178.4
X256.7Y-179.7
X259.9Y-169.7
X261.6Y-162.1
X262.Y-184.2
X262.1Y-177.7
X262.9Y-175.3
X263.7Y-172.7
X264.1Y-137.5
X264.2Y-120.5
X264.5Y-123.7
X264.6Y-163.3
X264.6Y-164.5
X264.6Y-165.7
X264.7Y-149.5
X265.3Y-180.5
X265.5Y-116.3
X265.5Y-167.5
X265.6Y-150.6
X266.3Y-114.5
X266.4Y-125.5
X266.4Y-191.5
X266.9Y-119.5
X267.1Y-111.7
X270.Y-102.2
X270.Y-103.4
X270.Y-104.6
X270.3Y-151.3
X270.8Y-149.5
X271.4Y-137.4
X271.6Y-153.
X271.9Y-157.3
X272.Y-93.5
X272.Y-206.5
X273.3Y-195.
X274.Y-120.5
X274.Y-167.5
X274.5Y-83.9
X275.8Y-159.8
X275.8Y-194.2
X276.6Y-83.9
X276.7Y-173.5
X276.7Y-175.5
X276.7Y-177.5
X276.7Y-182.5
X276.9Y-108.5
X276.9Y-111.5
X276.9Y-113.5
X276.9Y-115.5
X276.9Y-129.5
X276.9Y-179.4
X277.3Y-168.
X278.1Y-108.5
X278.2Y-121.4
X278.3Y-131.4
X278.5Y-168.
X279.3Y-108.5
X279.7Y-121.2
X279.7Y-168.
X280.9Y-168.
X286.8Y-85.2
T4
X133.5Y-93.5
X133.5Y-206.5
X138.5Y-93.5
X138.5Y-206.5
X197.Y-92.5
X197.Y-94.5
X197.Y-96.5
X197.Y-98.5
X197.Y-100.5
X197.Y-102.5
X197.Y-104.5
X197.Y-106.5
X197.Y-108.5
X197.Y-110.5
X219.Y-92.5
X219.Y-94.5
X219.Y-96.5
X219.Y-98.5
X219.Y-100.5
X219.Y-102.5
X219.Y-104.5
X219.Y-106.5
X219.Y-108.5
X219.Y-110.5
X277.5Y-93.5
X277.5Y-206.5
X282.5Y-93.5
X282.5Y-206.5
T5
X148.Y-74.19
X148.Y-76.73
X148.Y-79.27
X148.Y-81.81
X148.Y-140.19
X148.Y-142.73
X148.Y-145.27
X148.Y-147.81
X148.Y-152.19
X148.Y-154.73
X148.Y-157.27
X148.Y-159.81
X148.Y-218.19
X148.Y-220.73
X148.Y-223.27
X148.Y-225.81
X162.73Y-75.
X162.73Y-225.
X165.27Y-75.
X165.27Y-225.
X206.73Y-75.
X206.73Y-225.
X209.27Y-75.
X209.27Y-225.
X250.73Y-75.
X250.73Y-225.
X253.27Y-75.
X253.27Y-225.
X268.Y-74.19
X268.Y-76.73
X268.Y-79.27
X268.Y-81.81
X268.Y-140.19
X268.Y-142.73
X268.Y-145.27
X268.Y-147.81
X268.Y-152.19
X268.Y-154.73
X268.Y-157.27
X268.Y-159.81
X268.Y-218.19
X268.Y-220.73
X268.Y-223.27
X268.Y-225.81
T6
X142.Y-108.5
X142.Y-110.5
X142.Y-112.5
X142.Y-114.5
X142.Y-116.5
X142.Y-118.5
X142.Y-120.5
X142.Y-122.5
X142.Y-124.5
X142.Y-126.5
X142.Y-128.5
X142.Y-130.5
X142.Y-169.5
X142.Y-171.5
X142.Y-173.5
X142.Y-175.5
X142.Y-177.5
X142.Y-179.5
X142.Y-181.5
X142.Y-183.5
X142.Y-185.5
X142.Y-187.5
X142.Y-189.5
X142.Y-191.5
X146.Y-107.5
X146.Y-109.5
X146.Y-111.5
X146.Y-113.5
X146.Y-115.5
X146.Y-117.5
X146.Y-119.5
X146.Y-121.5
X146.Y-123.5
X146.Y-125.5
X146.Y-127.5
X146.Y-129.5
X146.Y-131.5
X146.Y-168.5
X146.Y-170.5
X146.Y-172.5
X146.Y-174.5
X146.Y-176.5
X146.Y-178.5
X146.Y-180.5
X146.Y-182.5
X146.Y-184.5
X146.Y-186.5
X146.Y-188.5
X146.Y-190.5
X146.Y-192.5
X270.Y-107.5
X270.Y-109.5
X270.Y-111.5
X270.Y-113.5
X270.Y-115.5
X270.Y-117.5
X270.Y-119.5
X270.Y-121.5
X270.Y-123.5
X270.Y-125.5
X270.Y-127.5
X270.Y-129.5
X270.Y-131.5
X270.Y-168.5
X270.Y-170.5
X270.Y-172.5
X270.Y-174.5
X270.Y-176.5
X270.Y-178.5
X270.Y-180.5
X270.Y-182.5
X270.Y-184.5
X270.Y-186.5
X270.Y-188.5
X270.Y-190.5
X270.Y-192.5
X274.Y-108.5
X274.Y-110.5
X274.Y-112.5
X274.Y-114.5
X274.Y-116.5
X274.Y-118.5
X274.Y-120.5
X274.Y-122.5
X274.Y-124.5
X274.Y-126.5
X274.Y-128.5
X274.Y-130.5
X274.Y-169.5
X274.Y-171.5
X274.Y-173.5
X274.Y-175.5
X274.Y-177.5
X274.Y-179.5
X274.Y-181.5
X274.Y-183.5
X274.Y-185.5
X274.Y-187.5
X274.Y-189.5
X274.Y-191.5
T7
X150.Y-93.5
X150.Y-206.5
X172.Y-79.
X172.Y-221.
X200.Y-78.
X200.Y-222.
X244.Y-79.
X244.Y-221.
X259.5Y-93.5
X259.5Y-206.5
T8
X135.Y-62.
X135.Y-238.
X203.8Y-114.
X207.5Y-198.1
X281.Y-62.
X281.Y-238.
T0
M30
